<svg width="55" height="63" viewBox="0 0 55 63" fill="none" xmlns="http://www.w3.org/2000/svg">
<path d="M1.58362 36.8223V46.7783L27.5937 62.0507L53.5852 46.7713L53.6037 37.0248L27.5937 52.1599L1.58362 36.8223Z" fill="white" fill-opacity="0.88"/>
<path d="M44.4813 11.1868L36.0941 16.0519V6.64039L36.0988 6.63341L36.0941 6.63109L27.596 1.58215L1.58362 16.6917V36.8223L18.7742 26.6686V36.6641L27.5937 41.9271L44.7403 31.906L53.6037 37.0271V16.4591L44.4813 11.1868ZM27.5937 31.7571L18.7811 26.664L25.4645 22.7155L10.1673 21.7314L1.94195 16.9035L27.5937 2.00329L35.7312 6.83584L20.2814 15.6773L36.0918 16.4707L44.4837 11.6032L53.4488 16.7825L27.5937 31.7571Z" fill="white" fill-opacity="0.88"/>
</svg>
